<?xml version="1.0" encoding="UTF-8"?> <svg xmlns="http://www.w3.org/2000/svg" id="Layer_1" data-name="Layer 1" viewBox="0 0 288 108"> <defs> <style>.cls-1{fill:#80bc00;}.cls-2{fill:#5eb3e4;}</style> </defs> <title>fwiaq-logo</title> <path class="cls-1" d="M275.136,47.654a2.532,2.532,0,1,1-2.616,2.524,2.552,2.552,0,0,1,2.6-2.524Zm-.032.509a2.016,2.016,0,0,0,.032,4.03,1.926,1.926,0,0,0,1.922-2.015,1.948,1.948,0,0,0-1.939-2.015Zm-.384,3.321h-.584V48.978a4.887,4.887,0,0,1,.968-.092,1.414,1.414,0,0,1,.876.2.69.69,0,0,1,.247.539.648.648,0,0,1-.523.6v.03a.723.723,0,0,1,.461.615,1.646,1.646,0,0,0,.186.615h-.63a1.953,1.953,0,0,1-.2-.6c-.045-.277-.2-.4-.522-.4h-.277Zm.015-1.414h.278c.322,0,.584-.108.584-.369,0-.231-.169-.385-.538-.385a1.5,1.5,0,0,0-.324.03Z"></path> <polygon class="cls-2" points="38.429 89.436 41.135 89.436 45.572 101.057 48.045 89.436 49.835 89.436 46.845 103.488 44.353 103.488 39.748 91.555 37.209 103.488 35.438 103.488 38.429 89.436"></polygon> <path class="cls-2" d="M56.405,103.488a5.227,5.227,0,0,1,.135-1.459,3.991,3.991,0,0,1-3.394,1.772c-2.238,0-3.175-1.266-2.833-2.881a4.213,4.213,0,0,1,2.323-2.861,8.5,8.5,0,0,1,3.524-.643c.467,0,.755.02,1.31.059.257-1.207.37-1.733.111-2.162a1.83,1.83,0,0,0-1.557-.641,2.125,2.125,0,0,0-2.318,1.654h-1.83a3.927,3.927,0,0,1,1.074-1.849,5.271,5.271,0,0,1,3.378-1.053c1.42,0,2.844.449,3.158,1.441a2.711,2.711,0,0,1,.012,1.5l-1.073,4.67a23.577,23.577,0,0,0-.365,2.453Zm-.242-4.806c-.74,0-3.523,0-3.946,1.984-.133.623.029,1.693,1.664,1.693a2.956,2.956,0,0,0,2.307-1.05A5.447,5.447,0,0,0,57.2,98.74a7.486,7.486,0,0,0-1.039-.058"></path> <path class="cls-2" d="M61.863,93.678h1.731l.436-2.043,1.934-.584-.559,2.627h2.18L67.3,95.022H65.12l-1.247,5.859c-.1.486-.279,1.305,1.026,1.305a4.328,4.328,0,0,0,.9-.1l-.3,1.422a9.778,9.778,0,0,1-1.543.117c-1.674,0-2.369-.488-2.029-2.084l1.388-6.521H61.576Z"></path> <path class="cls-2" d="M71.51,93.717,70.172,100c-.2.955-.245,2.162,1.623,2.162a3.293,3.293,0,0,0,2.529-1.092,3.771,3.771,0,0,0,.8-1.83L76.3,93.717h1.888L76.5,101.658c-.042.2-.235,1.285-.331,1.83H74.257l.319-1.673a3.927,3.927,0,0,1-3.493,1.771c-2.413,0-3.249-1.381-2.837-3.311l1.4-6.558Z"></path> <path class="cls-2" d="M81.406,95.7c.141-.66.247-1.342.325-1.984h1.85l-.363,1.889a3.469,3.469,0,0,1,2.746-1.928,6.018,6.018,0,0,1,1.274-.039l-.382,1.791a1.326,1.326,0,0,0-.334-.078,3.877,3.877,0,0,0-.522-.02c-2.16,0-2.94,1.285-3.3,2.959l-1.107,5.2H79.75Z"></path> <path class="cls-2" d="M93.182,103.488a5.153,5.153,0,0,1,.135-1.459,3.992,3.992,0,0,1-3.394,1.772c-2.238,0-3.175-1.266-2.832-2.881a4.2,4.2,0,0,1,2.321-2.861,8.507,8.507,0,0,1,3.524-.643c.467,0,.756.02,1.312.059.257-1.207.369-1.733.109-2.162a1.827,1.827,0,0,0-1.556-.641,2.126,2.126,0,0,0-2.319,1.654h-1.83a3.93,3.93,0,0,1,1.075-1.849,5.271,5.271,0,0,1,3.378-1.053c1.42,0,2.844.449,3.158,1.441a2.711,2.711,0,0,1,.012,1.5l-1.073,4.67a24.266,24.266,0,0,0-.367,2.453Zm-.242-4.806c-.74,0-3.524,0-3.946,1.984-.133.623.029,1.693,1.664,1.693a2.953,2.953,0,0,0,2.306-1.05,5.437,5.437,0,0,0,1.014-2.569,7.47,7.47,0,0,0-1.038-.058"></path> <polygon class="cls-2" points="101.076 89.455 102.906 89.455 99.919 103.488 98.089 103.488 101.076 89.455"></polygon> <path class="cls-2" d="M112.789,90.953a7.622,7.622,0,0,1,5.092-1.888c3.894,0,5.816,2.492,4.8,7.261-.8,3.737-3.093,7.492-8.1,7.492-4.788,0-5.62-3.4-4.8-7.259a10.241,10.241,0,0,1,3-5.606m-.633,9.928a3.1,3.1,0,0,0,2.84,1.285,4.764,4.764,0,0,0,3.389-1.285,9.391,9.391,0,0,0,2.238-4.574c.679-3.194.142-5.606-3.069-5.606-3.564,0-5.087,2.862-5.7,5.742a6.387,6.387,0,0,0,.3,4.438"></path> <path class="cls-2" d="M133.393,89.455h1.83l-2.656,12.477c-.046.213-.184,1.05-.253,1.558h-1.83l.293-1.558a3.824,3.824,0,0,1-1.095,1.031,5.2,5.2,0,0,1-2.568.721c-1.3,0-4.059-.682-3.148-4.963.792-3.719,3.257-5.334,5.553-5.334,2.1,0,2.539,1.244,2.685,1.654Zm-2.02,6.287a2.087,2.087,0,0,0-1.929-.994c-2.686,0-3.379,3.252-3.519,3.912-.368,1.735-.348,3.738,1.89,3.738,2.882,0,3.558-3.171,3.719-3.931a3.735,3.735,0,0,0-.161-2.725"></path> <path class="cls-2" d="M141.516,93.465c3.912,0,4.134,3.074,3.7,5.119a6.159,6.159,0,0,1-6.058,5.236c-3.231,0-4.332-2.238-3.723-5.1.514-2.414,2.248-5.256,6.083-5.256m-2.031,8.992c1.381,0,3.17-.992,3.795-3.932.518-2.435-.337-3.716-2.05-3.716-1.169,0-3.213.738-3.864,3.8-.427,2,.036,3.853,2.119,3.853"></path> <path class="cls-2" d="M148.788,95.7c.142-.66.247-1.342.325-1.984h1.85l-.361,1.889a3.465,3.465,0,0,1,2.744-1.928,6.01,6.01,0,0,1,1.273-.039l-.381,1.791a1.326,1.326,0,0,0-.334-.078,3.853,3.853,0,0,0-.52-.02c-2.161,0-2.941,1.285-3.3,2.959l-1.109,5.2h-1.847Z"></path> <polygon class="cls-2" points="162.778 89.436 171.596 89.436 171.242 91.09 164.372 91.09 163.438 95.469 169.98 95.469 169.632 97.106 163.092 97.106 162.098 101.775 169.124 101.775 168.761 103.488 159.785 103.488 162.778 89.436"></polygon> <polygon class="cls-2" points="174.941 89.455 176.77 89.455 173.784 103.488 171.955 103.488 174.941 89.455"></polygon> <path class="cls-2" d="M179.427,93.717h1.829l-2.079,9.771h-1.829Zm.708-4.244h2.2l-.426,2.006h-2.2Z"></path> <path class="cls-2" d="M184.523,95.022l.24-1.305h1.847l-.3,1.422a4.161,4.161,0,0,1,3.45-1.676c2.161,0,2.607,1.111,2.8,1.832a4.511,4.511,0,0,1,3.68-1.832c1.4,0,3.457.586,2.844,3.465l-1.4,6.56h-1.851l1.336-6.267a2.2,2.2,0,0,0-.018-1.479,1.734,1.734,0,0,0-1.684-.857,3.172,3.172,0,0,0-2.3,1.031,4.786,4.786,0,0,0-.877,2.1l-1.165,5.468h-1.85l1.376-6.463c.259-1.205-.244-2.14-1.685-2.14a3.353,3.353,0,0,0-2.368,1.07,4.11,4.11,0,0,0-.852,1.986l-1.181,5.547h-1.85Z"></path> <path class="cls-2" d="M202.828,93.717h1.83l-2.081,9.771h-1.828Zm.709-4.244h2.2l-.427,2.006h-2.2Z"></path> <path class="cls-2" d="M208.039,94.846l.221-1.129h1.83l-.317,1.576a4.113,4.113,0,0,1,3.512-1.77c.876,0,3.471.331,2.834,3.329l-1.413,6.636h-1.868l1.322-6.209a1.947,1.947,0,0,0-.17-1.673,2.041,2.041,0,0,0-1.592-.663,3.363,3.363,0,0,0-3.171,2.92l-1.2,5.625H206.2Z"></path> <path class="cls-2" d="M223.6,103.488a5.228,5.228,0,0,1,.136-1.459,3.992,3.992,0,0,1-3.394,1.772c-2.239,0-3.177-1.266-2.833-2.881a4.207,4.207,0,0,1,2.323-2.861,8.5,8.5,0,0,1,3.524-.643c.467,0,.754.02,1.309.059.259-1.207.371-1.733.111-2.162a1.829,1.829,0,0,0-1.556-.641,2.13,2.13,0,0,0-2.32,1.654h-1.829a3.922,3.922,0,0,1,1.075-1.849,5.267,5.267,0,0,1,3.376-1.053c1.423,0,2.845.449,3.159,1.441a2.7,2.7,0,0,1,.013,1.5l-1.072,4.67a23.872,23.872,0,0,0-.368,2.453Zm-.242-4.806c-.74,0-3.522,0-3.945,1.984-.133.623.027,1.693,1.665,1.693a2.956,2.956,0,0,0,2.306-1.05A5.468,5.468,0,0,0,224.4,98.74a7.466,7.466,0,0,0-1.039-.058"></path> <path class="cls-2" d="M229.062,93.678h1.732l.434-2.043,1.936-.584-.56,2.627h2.181l-.285,1.344h-2.181l-1.248,5.859c-.1.486-.277,1.305,1.028,1.305a4.325,4.325,0,0,0,.9-.1l-.3,1.422a9.756,9.756,0,0,1-1.543.117c-1.672,0-2.368-.488-2.03-2.084l1.389-6.521h-1.732Z"></path> <path class="cls-2" d="M240.943,93.465c3.914,0,4.133,3.074,3.7,5.119a6.161,6.161,0,0,1-6.059,5.236c-3.232,0-4.331-2.238-3.723-5.1.514-2.414,2.248-5.256,6.082-5.256m-2.03,8.992c1.382,0,3.169-.992,3.795-3.932.518-2.435-.338-3.716-2.051-3.716-1.168,0-3.214.738-3.864,3.8-.427,2,.037,3.853,2.12,3.853"></path> <path class="cls-2" d="M247.828,95.7c.139-.66.245-1.342.323-1.984H250l-.363,1.889a3.469,3.469,0,0,1,2.747-1.928,5.99,5.99,0,0,1,1.271-.039l-.38,1.791a1.348,1.348,0,0,0-.334-.078,3.861,3.861,0,0,0-.521-.02c-2.161,0-2.941,1.285-3.3,2.959l-1.106,5.2h-1.85Z"></path> <rect class="cls-1" x="206.729" y="47.27" width="3.265" height="34.369"></rect> <path class="cls-1" d="M238.6,81.639l-4.355-11.315h-13.6L216.29,81.639h-3.51L225.957,47.27h2.976L242.11,81.639ZM233,67.063l-5.575-14.516-5.536,14.516Z"></path> <path class="cls-1" d="M240.05,64.315c.018-9.816,7.6-17.844,17-17.852,9.572.018,16.984,7.86,17,17.852a18.385,18.385,0,0,1-5.165,12.828l4.669,4.5h-4.734l-2.424-2.373a16.4,16.4,0,0,1-9.347,2.943c-9.4-.008-16.977-8.039-17-17.894m17-14.592c-7.547.014-13.732,6.545-13.737,14.592,0,8.14,6.187,14.623,13.737,14.636a13.113,13.113,0,0,0,6.947-2.008L259.4,72.508h4.724l2.4,2.353a15.06,15.06,0,0,0,4.261-10.546c-.014-8.251-6.029-14.584-13.736-14.592"></path> <path class="cls-1" d="M181.64,26.654c.93,1.014-9.061,14.708-17.929,16.307s-12.121-.311-13.78-1.522c-.927-.678-1.378.507-1.378.507l-1.307,3.7s-.261.165-1.09-.119a.791.791,0,0,1-.568-1.022L148.069,40a41.109,41.109,0,0,1,3.82-4.8,13.38,13.38,0,0,1,9.344-4.032c3.784-.146,6.235.82,8.788.623,1.418-.11,3.917-.508,3.849-1.264-.06-.634-2.713-.07-4.139-.114-1.952-.062-4.81-.617-6.382-.653-2.157-.049-3.734-.424-6.528.218a13.027,13.027,0,0,0-5.948,3.481,16.911,16.911,0,0,0-3.754,5.792c-.375.839-.334-.546-.334-.546l.461-2.127s-.1-.814-.223-1.449a8.618,8.618,0,0,1,.514-3.7,12.029,12.029,0,0,1,3.916-4.28,19.076,19.076,0,0,1,7.181-2.175,24.848,24.848,0,0,1,8.379.877A21.587,21.587,0,0,0,175.28,27.4c3.111-.05,5.549-1.63,6.36-.748"></path> <path class="cls-1" d="M103.582,4.084c-.942.652,3.5,24.7,14.45,32.177s15.812,7.114,18.77,6.483a1.635,1.635,0,0,1,2.031,1.16l-.652,5.948s.168.554,1.451.672a1.164,1.164,0,0,0,1.379-1.032l-.628-7.548a38.806,38.806,0,0,0-1.749-9.209c-1.834-5.135-6.887-7.7-11.406-9.938-5-2.468-7.421-3.2-10.735-5-1.838-1-5.222-3.264-5.08-4.071.162-.923,2.559,1.1,4.5,1.894,2.659,1.09,7.5,2.876,9.631,3.771,2.928,1.231,5.421,1.594,8.792,4.136a17.808,17.808,0,0,1,5.751,7.933,26.376,26.376,0,0,1,2.022,10.059c0,1.352.778-.533.778-.533l.806-3.243a16.389,16.389,0,0,1,1.021-1.7,10.144,10.144,0,0,0,.866-4.634c-.2-2.85-1.138-6.858-2.612-9.112a28.025,28.025,0,0,0-8.27-7.4,33.964,33.964,0,0,0-11.264-3.335c-4.285-.471-7.16-.6-12.04-2.881-4.147-1.935-6.869-5.244-7.812-4.591"></path> <polygon class="cls-2" points="130.119 81.029 124.043 81.029 119.891 65.805 115.737 81.029 109.621 81.029 102.467 58.037 108.722 58.037 112.742 74.111 116.943 58.037 122.838 58.037 127.036 74.111 131.053 58.037 137.307 58.037 130.119 81.029"></polygon> <path class="cls-2" d="M152.275,78.891c-1.521,1.607-3.842,2.584-7.059,2.584-4.87,0-9.335-2.446-9.335-7.452,0-5.183,4.336-6.525,9.425-6.964,3.842-.358,6.565-.809,6.565-2.684,0-1.2-1.566-2.189-4.2-2.189-2.1,0-4.506.941-5.043,2.906h-5.9c.581-4.38,4.778-7.639,10.805-7.639,9.336,0,10.055,6.029,10.055,7.858v11.97a14.015,14.015,0,0,0,.663,3.748h-5.4a8.162,8.162,0,0,1-.578-2.138m-.181-8.93a13.558,13.558,0,0,1-5.58,1.469c-2.9.316-4.689.943-4.689,2.636,0,1.3,1.519,2.19,3.884,2.19,3.528,0,6.385-1.209,6.385-4.152Z"></path> <polygon class="cls-2" points="172.009 81.029 165.668 81.029 156.963 58.037 163.122 58.037 168.841 75.182 174.602 58.037 180.676 58.037 172.009 81.029"></polygon> <path class="cls-2" d="M184.7,71.836a5.849,5.849,0,0,0,5.757,4.553,5.377,5.377,0,0,0,4.876-2.678h6.292c-1.342,4.687-5.4,7.865-11.123,7.865a12.065,12.065,0,0,1,0-24.123c6.79,0,12.416,5.268,11.571,14.383Zm11.522-4.824a5.761,5.761,0,0,0-5.765-4.373,5.882,5.882,0,0,0-5.67,4.373Z"></path> <path class="cls-1" d="M14.2,81.606V60.254H11.073v-2.79H14.2V56.426a8.8,8.8,0,0,1,2.527-6.715,7.258,7.258,0,0,1,5.021-1.8c.306,0,.62.013.934.042L23.2,48v2.649l-.307-.017-.3-.018c-.184-.012-.363-.018-.539-.018a4.808,4.808,0,0,0-3.426,1.159c-1.033.972-1.588,2.564-1.589,4.815v.9H23.2v2.79H17.035V81.606Z"></path> <path class="cls-1" d="M24.939,81.606V57.463h2.836v2.544a5.6,5.6,0,0,1,.555-.6l0,0,.21.211-.2-.222a10,10,0,0,1,6.8-2.505,12.7,12.7,0,0,1,1.456.087l.508.058V59.67l-.308-.02-.315-.021c-.358-.032-.708-.049-1.051-.049a7.475,7.475,0,0,0-5.307,1.867,7.571,7.571,0,0,0-2.357,5.7V81.606Z"></path> <path class="cls-1" d="M58.853,74.424l-.106-.662H61.53l.052.224.049.221c.733,3.359,3.63,5.215,8.415,5.233a8.4,8.4,0,0,0,6.021-2.1,3.545,3.545,0,0,0,.971-2.469c0-.094,0-.187-.011-.293a3.227,3.227,0,0,0-1.709-2.853,15.777,15.777,0,0,0-5.8-1.649l-.119-.017a21.607,21.607,0,0,1-6.1-1.492,5.2,5.2,0,0,1-3.241-4.852v0c.009-3.448,3.276-6.814,9.277-6.822,5.321-.018,8.95,2.441,9.979,6.867l.163.7H76.639l-.064-.2-.061-.2c-.9-2.924-3.287-4.449-7.134-4.465a7.779,7.779,0,0,0-5.526,1.848,3.136,3.136,0,0,0-.965,2.226V63.7a2.352,2.352,0,0,0,1.431,2.252,18.35,18.35,0,0,0,5.633,1.391,19.4,19.4,0,0,1,6.678,1.943A6.025,6.025,0,0,1,79.862,74.5c0,.072,0,.143,0,.217a6.576,6.576,0,0,1-1.771,4.574,11.15,11.15,0,0,1-8,2.85h-.049c-6.152,0-10.417-2.879-11.192-7.713"></path> <path class="cls-1" d="M99.269,81.606V67.145c-.033-4.848-2.572-7.484-7.2-7.514a7.429,7.429,0,0,0-7.692,7.514V81.606h-2.8V47.235h2.8V60.212a10.114,10.114,0,0,1,7.731-3.327,9.816,9.816,0,0,1,7.277,2.767,10.472,10.472,0,0,1,2.678,7.493V81.606ZM81.87,47.815v0Z"></path> <path class="cls-1" d="M54.488,60.416a13.03,13.03,0,0,1,3.748,8.934c0,.062,0,.115,0,.172l-.016.56H36.96a9.454,9.454,0,0,0,9.493,9.26c4.1-.012,6.816-1.735,8.273-5.219l.134-.363h2.958l-.138.387-.134.375c-1.766,4.951-5.65,7.617-11.054,7.617h-.039A12.322,12.322,0,0,1,34.138,69.594c.012-6.994,5.385-12.708,12.045-12.709a11.583,11.583,0,0,1,8.305,3.531m1.039,7.152a9.747,9.747,0,0,0-9.344-8.128,9.634,9.634,0,0,0-9.3,8.128Z"></path> </svg> 